<svg xmlns="http://www.w3.org/2000/svg" width="1200" height="520" viewBox="0 0 1200 520" role="img" aria-labelledby="title desc">
  <title id="title">Dimina 编译与运行时链路</title>
  <desc id="desc">小程序源码由 DMCC 编译成运行时资源包，交给 Android、iOS、Harmony 与 Web 容器加载；容器内部通过消息通道连接逻辑层、视图层和原生能力。</desc>
  <metadata>The Android robot is reproduced or modified from work created and shared by Google and used according to terms described in the Creative Commons 3.0 Attribution License.</metadata>

  <style>
    @media (prefers-reduced-motion: no-preference) {
      .animated-arrow {
        stroke-dasharray: 5 5;
        animation: arrow-flow 0.75s linear infinite;
      }
      .meteor {
        animation: meteor-fall 8s linear infinite;
        will-change: transform, opacity;
      }
      .meteor-two { animation-delay: 2.7s; }
      .meteor-three { animation-delay: 5.4s; }
    }
    .meteor { opacity: 0; }
    @keyframes arrow-flow {
      to { stroke-dashoffset: -10; }
    }
    @keyframes meteor-fall {
      0%, 5% { opacity: 0; transform: translate(90px, -90px); }
      8% { opacity: 0.72; }
      30% { opacity: 0.72; transform: translate(-250px, 250px); }
      34%, 100% { opacity: 0; transform: translate(-310px, 310px); }
    }
  </style>

  <defs>
    <linearGradient id="flow" x1="0" y1="0" x2="1" y2="0">
      <stop offset="0" stop-color="#0070F3"/>
      <stop offset="1" stop-color="#0070F3"/>
    </linearGradient>
    <marker id="arrow" viewBox="0 0 10 10" refX="8" refY="5" markerWidth="7" markerHeight="7" orient="auto-start-reverse">
      <path d="M 0 0 L 10 5 L 0 10 z" fill="#0070F3"/>
    </marker>
    <linearGradient id="meteor-trail" x1="64" y1="0" x2="0" y2="64" gradientUnits="userSpaceOnUse">
      <stop offset="0" stop-color="#4AAEFF" stop-opacity="0"/>
      <stop offset="0.68" stop-color="#4AAEFF" stop-opacity="0.22"/>
      <stop offset="0.9" stop-color="#86CEFF" stop-opacity="0.58"/>
      <stop offset="1" stop-color="#DDF4FF" stop-opacity="0.92"/>
    </linearGradient>
    <clipPath id="meteor-clip">
      <rect width="1200" height="520" rx="26"/>
    </clipPath>
    <symbol id="brand-android" viewBox="0 0 24 24">
      <path fill="#3DDC84" d="M18.4395 5.5586c-.675 1.1664-1.352 2.3318-2.0274 3.498-.0366-.0155-.0742-.0286-.1113-.043-1.8249-.6957-3.484-.8-4.42-.787-1.8551.0185-3.3544.4643-4.2597.8203-.084-.1494-1.7526-3.021-2.0215-3.4864a1.1451 1.1451 0 0 0-.1406-.1914c-.3312-.364-.9054-.4859-1.379-.203-.475.282-.7136.9361-.3886 1.5019 1.9466 3.3696-.0966-.2158 1.9473 3.3593.0172.031-.4946.2642-1.3926 1.0177C2.8987 12.176.452 14.772 0 18.9902h24c-.119-1.1108-.3686-2.099-.7461-3.0683-.7438-1.9118-1.8435-3.2928-2.7402-4.1836a12.1048 12.1048 0 0 0-2.1309-1.6875c.6594-1.122 1.312-2.2559 1.9649-3.3848.2077-.3615.1886-.7956-.0079-1.1191a1.1001 1.1001 0 0 0-.8515-.5332c-.5225-.0536-.9392.3128-1.0488.5449zm-.0391 8.461c.3944.5926.324 1.3306-.1563 1.6503-.4799.3197-1.188.0985-1.582-.4941-.3944-.5927-.324-1.3307.1563-1.6504.4727-.315 1.1812-.1086 1.582.4941zM7.207 13.5273c.4803.3197.5506 1.0577.1563 1.6504-.394.5926-1.1038.8138-1.584.4941-.48-.3197-.5503-1.0577-.1563-1.6504.4008-.6021 1.1087-.8106 1.584-.4941z"/>
    </symbol>
    <symbol id="brand-apple" viewBox="0 0 24 24">
      <path fill="#000000" d="M12.152 6.896c-.948 0-2.415-1.078-3.96-1.04-2.04.027-3.91 1.183-4.961 3.014-2.117 3.675-.546 9.103 1.519 12.09 1.013 1.454 2.208 3.09 3.792 3.039 1.52-.065 2.09-.987 3.935-.987 1.831 0 2.35.987 3.96.948 1.637-.026 2.676-1.48 3.676-2.948 1.156-1.688 1.636-3.325 1.662-3.415-.039-.013-3.182-1.221-3.22-4.857-.026-3.04 2.48-4.494 2.597-4.559-1.429-2.09-3.623-2.324-4.39-2.376-2-.156-3.675 1.09-4.61 1.09zM15.53 3.83c.843-1.012 1.4-2.427 1.245-3.83-1.207.052-2.662.805-3.532 1.818-.78.896-1.454 2.338-1.273 3.714 1.338.104 2.715-.688 3.559-1.701"/>
    </symbol>
    <symbol id="brand-harmony" viewBox="0 0 24 24">
      <path fill="#CF0A2C" d="M3.67 6.14S1.82 7.91 1.72 9.78v.35c.08 1.51 1.22 2.4 1.22 2.4 1.83 1.79 6.26 4.04 7.3 4.55 0 0 .06.03.1-.01l.02-.04v-.04C7.52 10.8 3.67 6.14 3.67 6.14zM9.65 18.6c-.02-.08-.1-.08-.1-.08l-7.38.26c.8 1.43 2.15 2.53 3.56 2.2.96-.25 3.16-1.78 3.88-2.3.06-.05.04-.09.04-.09zm.08-.78C6.49 15.63.21 12.28.21 12.28c-.15.46-.2.9-.21 1.3v.07c0 1.07.4 1.82.4 1.82.8 1.69 2.34 2.2 2.34 2.2.7.3 1.4.31 1.4.31.12.02 4.4 0 5.54 0 .05 0 .08-.05.08-.05v-.06c0-.03-.03-.05-.03-.05zM9.06 3.19a3.42 3.42 0 00-2.57 3.15v.41c.03.6.16 1.05.16 1.05.66 2.9 3.86 7.65 4.55 8.65.05.05.1.03.1.03a.1.1 0 00.06-.1c1.06-10.6-1.11-13.42-1.11-13.42-.32.02-1.19.23-1.19.23zm8.299 2.27s-.49-1.8-2.44-2.28c0 0-.57-.14-1.17-.22 0 0-2.18 2.81-1.12 13.43.01.07.06.08.06.08.07.03.1-.03.1-.03.72-1.03 3.9-5.76 4.55-8.64 0 0 .36-1.4.02-2.34zm-2.92 13.07s-.07 0-.09.05c0 0-.01.07.03.1.7.51 2.85 2 3.88 2.3 0 0 .16.05.43.06h.14c.69-.02 1.9-.37 3-2.26l-7.4-.25zm7.83-8.41c.14-2.06-1.94-3.97-1.94-3.98 0 0-3.85 4.66-6.67 10.8 0 0-.03.08.02.13l.04.01h.06c1.06-.53 5.46-2.77 7.28-4.54 0 0 1.15-.93 1.21-2.42zm1.52 2.14s-6.28 3.37-9.52 5.55c0 0-.05.04-.03.11 0 0 .03.06.07.06 1.16 0 5.56 0 5.67-.02 0 0 .57-.02 1.27-.29 0 0 1.56-.5 2.37-2.27 0 0 .73-1.45.17-3.14z"/>
    </symbol>
    <symbol id="brand-web" viewBox="0 0 24 24">
      <circle cx="12" cy="12" r="9.5" fill="none" stroke="#0070F3" stroke-width="1.8"/>
      <path d="M2.5 12h19M12 2.5c2.6 2.7 4 6 4 9.5s-1.4 6.8-4 9.5c-2.6-2.7-4-6-4-9.5s1.4-6.8 4-9.5Z" fill="none" stroke="#0070F3" stroke-width="1.8" stroke-linecap="round"/>
    </symbol>
  </defs>

  <rect width="1200" height="520" rx="26" fill="#FAFAFA"/>
  <g id="meteor-shower" clip-path="url(#meteor-clip)" aria-hidden="true">
    <g class="meteor meteor-one">
      <g transform="translate(1110 4)">
        <path d="M64 0 L0 64" fill="none" stroke="url(#meteor-trail)" stroke-width="3" stroke-linecap="round"/>
        <circle cx="0" cy="64" r="5" fill="#9EDCFF" fill-opacity="0.18"/>
        <circle cx="0" cy="64" r="2.6" fill="#FFF6DE" stroke="#72C7FF" stroke-width="1.2"/>
      </g>
    </g>
    <g class="meteor meteor-two">
      <g transform="translate(900 -24) scale(0.72)">
        <path d="M64 0 L0 64" fill="none" stroke="url(#meteor-trail)" stroke-width="3" stroke-linecap="round"/>
        <circle cx="0" cy="64" r="5" fill="#9EDCFF" fill-opacity="0.18"/>
        <circle cx="0" cy="64" r="2.6" fill="#FFF6DE" stroke="#72C7FF" stroke-width="1.2"/>
      </g>
    </g>
    <g class="meteor meteor-three">
      <g transform="translate(1180 176) scale(0.58)">
        <path d="M64 0 L0 64" fill="none" stroke="url(#meteor-trail)" stroke-width="3" stroke-linecap="round"/>
        <circle cx="0" cy="64" r="5" fill="#9EDCFF" fill-opacity="0.18"/>
        <circle cx="0" cy="64" r="2.6" fill="#FFF6DE" stroke="#72C7FF" stroke-width="1.2"/>
      </g>
    </g>
  </g>
  <text x="56" y="52" fill="#666666" font-family="ui-monospace, SFMono-Regular, Menlo, monospace" font-size="14" font-weight="700" letter-spacing="1.6">ONE SOURCE · ONE RUNTIME CONTRACT · FOUR TARGETS</text>
  <text x="56" y="86" fill="#000000" font-family="-apple-system, BlinkMacSystemFont, 'Segoe UI', 'PingFang SC', sans-serif" font-size="27" font-weight="750">从小程序源码到跨端容器</text>

  <g id="compile-flow">
    <rect x="56" y="116" width="216" height="108" rx="18" fill="#FFFFFF" stroke="#EAEAEA"/>
    <text x="78" y="145" fill="#666666" font-family="ui-monospace, SFMono-Regular, Menlo, monospace" font-size="12" font-weight="700">MINI PROGRAM SOURCE</text>
    <g transform="translate(78 166)">
      <rect width="49" height="32" rx="8" fill="#E6F0FF"/>
      <rect x="57" width="49" height="32" rx="8" fill="#F2F2F2"/>
      <rect x="114" width="49" height="32" rx="8" fill="#F2F2F2"/>
      <text x="24.5" y="21" text-anchor="middle" fill="#0070F3" font-family="ui-monospace, SFMono-Regular, Menlo, monospace" font-size="11" font-weight="700">WXML</text>
      <text x="81.5" y="21" text-anchor="middle" fill="#333333" font-family="ui-monospace, SFMono-Regular, Menlo, monospace" font-size="11" font-weight="700">WXSS</text>
      <text x="138.5" y="21" text-anchor="middle" fill="#666666" font-family="ui-monospace, SFMono-Regular, Menlo, monospace" font-size="11" font-weight="700">JS/TS</text>
    </g>

    <path class="animated-arrow" d="M272 170 H316" fill="none" stroke="#0070F3" stroke-width="2.5" marker-end="url(#arrow)"/>
    <rect x="326" y="116" width="172" height="108" rx="18" fill="#FFFFFF" stroke="#EAEAEA"/>
    <rect x="343" y="148" width="44" height="44" rx="11" fill="#000000"/>
    <text x="365" y="176" text-anchor="middle" fill="#FFFFFF" font-family="ui-monospace, SFMono-Regular, Menlo, monospace" font-size="14" font-weight="800">&lt;/&gt;</text>
    <text x="397" y="166" fill="#000000" font-family="ui-monospace, SFMono-Regular, Menlo, monospace" font-size="19" font-weight="800">DMCC</text>
    <text x="397" y="187" fill="#666666" font-family="ui-monospace, SFMono-Regular, Menlo, monospace" font-size="11">COMPILER</text>

    <path class="animated-arrow" d="M498 170 H542" fill="none" stroke="#0070F3" stroke-width="2.5" marker-end="url(#arrow)"/>
    <rect id="runtime-bundle-card" x="552" y="116" width="220" height="108" rx="18" fill="#FFFFFF" stroke="#EAEAEA"/>
    <path d="M578 145 H622 L636 159 V199 H578Z" fill="#E6F0FF" stroke="#99C2FF"/>
    <path d="M622 145 V159 H636" fill="none" stroke="#99C2FF"/>
    <path d="M589 172 H625 M589 184 H616" stroke="#0070F3" stroke-width="2" stroke-linecap="round"/>
    <text id="runtime-bundle-label" x="654" y="166" fill="#000000" font-family="-apple-system, BlinkMacSystemFont, 'Segoe UI', 'PingFang SC', sans-serif" font-size="16" font-weight="700">运行时资源包</text>
    <text x="654" y="188" fill="#666666" font-family="ui-monospace, SFMono-Regular, Menlo, monospace" font-size="11">RUNTIME BUNDLE</text>

    <path class="animated-arrow" d="M772 170 H814" fill="none" stroke="#0070F3" stroke-width="2.5" marker-end="url(#arrow)"/>

    <g transform="translate(824 113)">
      <rect width="146" height="52" rx="13" fill="#FFFFFF" stroke="#EAEAEA"/>
      <use href="#brand-android" x="12" y="16" width="20" height="20"/>
      <text x="36" y="24" fill="#000000" font-family="-apple-system, BlinkMacSystemFont, 'Segoe UI', sans-serif" font-size="15" font-weight="700">Android</text>
      <text x="36" y="40" fill="#666666" font-family="ui-monospace, SFMono-Regular, Menlo, monospace" font-size="10">QuickJS</text>
    </g>
    <g transform="translate(982 113)">
      <rect width="162" height="52" rx="13" fill="#FFFFFF" stroke="#EAEAEA"/>
      <use href="#brand-apple" x="14.5" y="18.5" width="15" height="15"/>
      <text x="36" y="24" fill="#000000" font-family="-apple-system, BlinkMacSystemFont, 'Segoe UI', sans-serif" font-size="15" font-weight="700">iOS</text>
      <text x="36" y="40" fill="#666666" font-family="ui-monospace, SFMono-Regular, Menlo, monospace" font-size="10">JavaScriptCore</text>
    </g>
    <g transform="translate(824 175)">
      <rect width="146" height="52" rx="13" fill="#FFFFFF" stroke="#EAEAEA"/>
      <use href="#brand-harmony" x="13.5" y="17.5" width="17" height="17"/>
      <text x="36" y="24" fill="#000000" font-family="-apple-system, BlinkMacSystemFont, 'Segoe UI', sans-serif" font-size="15" font-weight="700">Harmony</text>
      <text x="36" y="40" fill="#666666" font-family="ui-monospace, SFMono-Regular, Menlo, monospace" font-size="10">QuickJS</text>
    </g>
    <g transform="translate(982 175)">
      <rect width="162" height="52" rx="13" fill="#FFFFFF" stroke="#EAEAEA"/>
      <use href="#brand-web" x="13.5" y="17.5" width="17" height="17"/>
      <text x="36" y="24" fill="#000000" font-family="-apple-system, BlinkMacSystemFont, 'Segoe UI', sans-serif" font-size="15" font-weight="700">Web</text>
      <text x="36" y="40" fill="#666666" font-family="ui-monospace, SFMono-Regular, Menlo, monospace" font-size="10">Web Worker</text>
    </g>
  </g>

  <g id="runtime-contract">
    <rect x="56" y="264" width="1088" height="208" rx="22" fill="#F2F2F2" stroke="#EAEAEA"/>
    <text x="82" y="296" fill="#666666" font-family="ui-monospace, SFMono-Regular, Menlo, monospace" font-size="12" font-weight="700" letter-spacing="1.4">INSIDE EACH CONTAINER</text>

    <g transform="translate(82 316)">
      <rect width="282" height="112" rx="16" fill="#FFFFFF" stroke="#EAEAEA"/>
      <rect x="18" y="18" width="44" height="8" rx="4" fill="#0070F3"/>
      <text x="18" y="51" fill="#000000" font-family="-apple-system, BlinkMacSystemFont, 'Segoe UI', 'PingFang SC', sans-serif" font-size="18" font-weight="700">逻辑层 · Service</text>
      <text x="18" y="78" fill="#666666" font-family="ui-monospace, SFMono-Regular, Menlo, monospace" font-size="12">JS engine / Worker</text>
      <text x="18" y="96" fill="#888888" font-family="-apple-system, BlinkMacSystemFont, 'Segoe UI', 'PingFang SC', sans-serif" font-size="13">生命周期 · API · 状态</text>
    </g>

    <path class="animated-arrow" d="M373 372 H410" fill="none" stroke="#0070F3" stroke-width="2.5" marker-end="url(#arrow)"/>
    <path class="animated-arrow" d="M410 392 H373" fill="none" stroke="#888888" stroke-width="2.5" marker-end="url(#arrow)"/>

    <g transform="translate(420 316)">
      <rect width="282" height="112" rx="16" fill="#FFFFFF" stroke="#EAEAEA"/>
      <rect x="18" y="18" width="44" height="8" rx="4" fill="#000000"/>
      <text x="18" y="51" fill="#000000" font-family="-apple-system, BlinkMacSystemFont, 'Segoe UI', 'PingFang SC', sans-serif" font-size="18" font-weight="700">消息通道 · Bridge</text>
      <text x="18" y="78" fill="#666666" font-family="ui-monospace, SFMono-Regular, Menlo, monospace" font-size="12">event ⇄ data · JSBridge</text>
      <text x="18" y="96" fill="#888888" font-family="-apple-system, BlinkMacSystemFont, 'Segoe UI', 'PingFang SC', sans-serif" font-size="13">连接逻辑、视图与原生能力</text>
    </g>

    <path class="animated-arrow" d="M711 372 H748" fill="none" stroke="#0070F3" stroke-width="2.5" marker-end="url(#arrow)"/>
    <path class="animated-arrow" d="M748 392 H711" fill="none" stroke="#888888" stroke-width="2.5" marker-end="url(#arrow)"/>

    <g transform="translate(758 316)">
      <rect width="360" height="112" rx="16" fill="#FFFFFF" stroke="#EAEAEA"/>
      <rect x="18" y="18" width="44" height="8" rx="4" fill="#888888"/>
      <text x="18" y="51" fill="#000000" font-family="-apple-system, BlinkMacSystemFont, 'Segoe UI', 'PingFang SC', sans-serif" font-size="18" font-weight="700">视图与原生 · View + Native</text>
      <text x="18" y="78" fill="#666666" font-family="ui-monospace, SFMono-Regular, Menlo, monospace" font-size="12">Vue runtime · components · WebView</text>
      <text x="18" y="96" fill="#888888" font-family="-apple-system, BlinkMacSystemFont, 'Segoe UI', 'PingFang SC', sans-serif" font-size="13">原生 API · 离线资源 · 页面预热</text>
    </g>

    <text x="82" y="454" fill="#666666" font-family="-apple-system, BlinkMacSystemFont, 'Segoe UI', 'PingFang SC', sans-serif" font-size="13">统一运行时契约把小程序语义落到不同平台，同时保留各端原生能力。</text>
  </g>
</svg>
